inDegrees=yes
name=ik_S56_A13_T02
DataType=double
version=3
OpenSimVersion=4.3-2021-08-27-4bc7ad9
endheader
time	pelvis_tilt	pelvis_list	pelvis_rotation	pelvis_tx	pelvis_ty	pelvis_tz	hip_flexion_r	hip_adduction_r	hip_rotation_r	knee_angle_r	knee_angle_r_beta	ankle_angle_r	subtalar_angle_r	mtp_angle_r	hip_flexion_l	hip_adduction_l	hip_rotation_l	knee_angle_l	knee_angle_l_beta	ankle_angle_l	subtalar_angle_l	mtp_angle_l	lumbar_extension	lumbar_bending	lumbar_rotation	arm_flex_r	arm_add_r	arm_rot_r	elbow_flex_r	pro_sup_r	wrist_flex_r	wrist_dev_r	arm_flex_l	arm_add_l	arm_rot_l	elbow_flex_l	pro_sup_l	wrist_flex_l	wrist_dev_l
0	0	0	0	0	0.9399999999999999	0	0	0	0	0	0	0	0	0	0	0	0	0	0	0	0	0	0	0	0	0	0	0	0	89.99999999963507	0	0	0	0	0	0	89.99999999869995	0	0
0.02	-1.143487253552611	-2.004414373945655	31.57673785634152	0	0.9399999999999999	0	2.769211134075006	-1.307840128636948	-0.9332004237880902	4.277537363468618	0.0746571108696048	0	0	0	2.769211134075006	-1.307840128636948	-0.9332004237880902	4.277537363468618	0.0746571108696048	0	0	0	0.9787862553919416	0.7172767968864975	12.25394043775902	15.22024662171865	-5.040628563049126	9.391723334391058	19.51802578674323	159.619875340314	0	0	16.69540259973142	-0.9164591343333455	15.41858983431046	21.43303759022532	171.4690657859005	0	0
0.04	-1.151970165087579	-2.010301394689854	31.61057668951746	0	0.9399999999999999	0	3.432865098711757	-1.614316405963778	-1.167949534560402	4.959030649733575	0.08655141254516453	0	0	0	3.432865098711757	-1.614316405963778	-1.167949534560402	4.959030649733575	0.08655141254516453	0	0	0	0.9399008710201133	0.6931980658990106	12.18709860355544	15.24982692743768	-5.030080133901764	9.315322502258599	19.56333628533643	159.7285509741243	0	0	16.71306955621729	-0.9590383068599708	15.35957049534421	21.41941922248955	171.3830022128604	0	0
0.06	-1.137491459375761	-1.994485465698873	31.73636508403314	0	0.9399999999999999	0	4.514585573919438	-2.140031149892437	-1.550435169870442	6.171023243160161	0.1077046738102435	0	0	0	4.514585573919438	-2.140031149892437	-1.550435169870442	6.171023243160161	0.1077046738102435	0	0	0	0.9196002010979752	0.6739571374809201	12.07242701498167	15.24585607591	-5.014204165262096	9.307966494355972	19.57401028489405	159.7042954844856	0	0	16.69561089750861	-0.9402820009600994	15.33974342196744	21.3761882233121	171.3276400451732	0	0
0.08	-1.151355211433581	-2.001548577018957	31.86506274239006	0	0.9399999999999999	0	6.075931856391588	-2.82616068854638	-2.085687150546924	7.830134873396871	0.1366616344160047	0	0	0	6.075931856391588	-2.82616068854638	-2.085687150546924	7.830134873396871	0.1366616344160047	0	0	0	0.8461409175817964	0.6522862287718818	11.91904786162146	15.33285973292898	-5.039965063255727	9.287839197393991	19.6109056677733	159.7249810224512	0	0	16.75729721575684	-0.9647620934457748	15.3146338810823	21.40569583709776	171.3336999771206	0	0
0.1	-1.148158096013504	-1.992946289606704	31.91004550030279	0	0.9399999999999999	0	6.543197979501613	-3.041748754267811	-2.248688814943367	8.332997545284526	0.1454382437258203	0	0	0	6.543197979501613	-3.041748754267811	-2.248688814943367	8.332997545284526	0.1454382437258203	0	0	0	0.8341691292967004	0.6428348918813928	11.88027186613614	15.33396968015713	-5.037493100122298	9.283556021231716	19.66595669330003	159.6511491446934	0	0	16.75089906809092	-0.9673992531454104	15.35617634974571	21.45842165369907	171.3405530777329	0	0
0.12	-1.146512990638048	-1.983650993191276	31.95452607076366	0	0.9399999999999999	0	7.192360320957297	-3.348845823585155	-2.475830255567339	9.053874373357367	0.1580199178770244	0	0	0	7.192360320957297	-3.348845823585155	-2.475830255567339	9.053874373357367	0.1580199178770244	0	0	0	0.8173932974687345	0.6371694136719031	11.81616744405577	15.31908407578482	-5.085185823455915	9.240134409701454	19.71575614355006	159.6362724053115	0	0	16.75267170185485	-0.9644481395209402	15.40472737954807	21.49401980070374	171.3505361884412	0	0
0.14	-1.168631487713651	-2.007604453496357	31.90203383889774	0	0.9399999999999999	0	7.201311547554434	-3.353076025559689	-2.478884689895355	9.064685406443596	0.1582086059999211	0	0	0	7.201311547554434	-3.353076025559689	-2.478884689895355	9.064685406443596	0.1582086059999211	0	0	0	0.7849648903308923	0.6284233428222818	11.79354693273493	15.40311096336998	-5.094631781861004	9.250104914300943	19.7320316559991	159.6198897224738	0	0	16.79699891270238	-0.9949341755221067	15.40459675690308	21.52197170715602	171.3509097304259	0	0
0.16	-1.165294057546412	-1.997452343681419	31.94595819581722	0	0.9399999999999999	0	7.79618653162621	-3.627336407039798	-2.685542590568033	9.715851201194097	0.169573593094683	0	0	0	7.79618653162621	-3.627336407039798	-2.685542590568033	9.715851201194097	0.169573593094683	0	0	0	0.7719751820453866	0.622125385275292	11.74130585751597	15.41572367750481	-5.12402968879348	9.218093902847682	19.72896499275346	159.5170442702355	0	0	16.80718542570983	-0.993270057656702	15.47877239370541	21.58348941155611	171.3229010593761	0	0
0.18	-1.167459733061542	-1.992992351354313	31.98514339104501	0	0.9399999999999999	0	8.412447460203904	-3.904156159739904	-2.897656282929043	10.38584044946439	0.1812671114299614	0	0	0	8.412447460203904	-3.904156159739904	-2.897656282929043	10.38584044946439	0.1812671114299614	0	0	0	0.7480576491235633	0.6125010489706512	11.67473029066971	15.45901030568983	-5.161960401507371	9.159302253153985	19.70884146118401	159.480181479352	0	0	16.81960709177897	-1.014791353433865	15.49823647106005	21.6111556688227	171.3251179295519	0	0
0.2	-1.163939109606305	-1.988589551757979	32.0183764636587	0	0.9399999999999999	0	8.976375241468073	-4.150794055918572	-3.09007085954154	10.99292986566963	0.1918628205967531	0	0	0	8.976375241468073	-4.150794055918572	-3.09007085954154	10.99292986566963	0.1918628205967531	0	0	0	0.7307846913355827	0.5983786790159353	11.61636320474577	15.49212165601589	-5.188475531251934	9.131735815887573	19.71072969436964	159.4495482355329	0	0	16.8387008107068	-1.040066275877909	15.50322816424899	21.60415948024149	171.3526987248303	0	0
0.22	-1.157060640927221	-1.974546164124175	32.11099648678562	0	0.9399999999999999	0	9.509073259327138	-4.363640035816747	-3.265578570502083	11.56884426991576	0.2019144231605095	0	0	0	9.509073259327138	-4.363640035816747	-3.265578570502083	11.56884426991576	0.2019144231605095	0	0	0	0.7251460699329318	0.5897121926094608	11.53378900899835	15.48489198339215	-5.204617288730406	9.119815228294092	19.68466849770795	159.3525158675336	0	0	16.85895936447407	-1.053498602172446	15.51972303713296	21.56476116776787	171.1913042382218	0	0
0.24	-1.152046108023426	-1.965124069657851	32.17131641301012	0	0.9399999999999999	0	9.918281084780819	-4.527539215908311	-3.400256463991385	12.01075674033807	0.209627250775001	0	0	0	9.918281084780819	-4.527539215908311	-3.400256463991385	12.01075674033807	0.209627250775001	0	0	0	0.7151358150052953	0.5814694539478212	11.47796768474704	15.49040855535466	-5.208111179920648	9.082209593270308	19.62930547008189	159.2248235945185	0	0	16.88952841293134	-1.039877188778154	15.48734085455215	21.51037868173294	171.0447593502638	0	0
0.26	-1.146857892038229	-1.955921383631878	32.11878642800854	0	0.9399999999999999	0	9.92462987312747	-4.530220411121497	-3.402361148816016	12.01809019055182	0.209755243626762	0	0	0	9.92462987312747	-4.530220411121497	-3.402361148816016	12.01809019055182	0.209755243626762	0	0	0	0.7241622105038329	0.5863273555868412	11.4776140507232	15.49510924227361	-5.227728144643121	9.031691480986726	19.58631889419061	159.0834562459516	0	0	16.88843965501021	-1.04156617509411	15.31137337408779	21.44742424742076	170.9504488583376	0	0
0.28	-1.147628897957837	-1.939696844485676	32.18634045205705	0	0.9399999999999999	0	10.56034337623979	-4.763099931726769	-3.605962691751782	12.67840797522667	0.2212799630788131	0	0	0	10.56034337623979	-4.763099931726769	-3.605962691751782	12.67840797522667	0.2212799630788131	0	0	0	0.6993203630572836	0.5811102804632227	11.39109495780307	15.54816081960959	-5.249101573222426	9.005839332967874	19.5592456763003	158.8082176890582	0	0	16.91879416804854	-1.050560716419529	15.22255977031864	21.37609913263044	170.6867340495185	0	0
0.3	-1.139781687617824	-1.928724529145266	32.21523621506675	0	0.9399999999999999	0	10.56580395610013	-4.765392959034114	-3.607774154338779	12.68460959804426	0.2213882018159468	0	0	0	10.56580395610013	-4.765392959034114	-3.607774154338779	12.68460959804426	0.2213882018159468	0	0	0	0.7111827620816505	0.5861488019071331	11.3761373640743	15.5507133296782	-5.24216945411443	8.925726942474347	19.52955732536383	158.8022347993363	0	0	16.89963689925921	-1.040821393433622	15.11579801509338	21.30932692098411	170.5606010373281	0	0
0.32	-1.128579151672283	-1.90531499366756	32.23086844518163	0	0.9399999999999999	0	10.57903957804332	-4.771017522180165	-3.612189837601147	12.69952349691557	0.2216484984555606	0	0	0	10.57903957804332	-4.771017522180165	-3.612189837601147	12.69952349691557	0.2216484984555606	0	0	0	0.7316703330298556	0.5998027486904558	11.34244656034133	15.55831120299661	-5.231992205390051	8.910070413647343	19.44925240885192	158.8594983667078	0	0	16.8982134985907	-1.012584790773626	15.03976524245351	21.12505897667273	170.107144219257	0	0
